<svg width="259" height="79" viewBox="0 0 259 79" fill="none" xmlns="http://www.w3.org/2000/svg">
<g clip-path="url(#clip0_24_2)">
<path d="M34.4226 59.3861C34.8949 59.8975 35.1538 60.5702 35.1462 61.2663C35.1386 61.9624 34.865 62.6292 34.3816 63.1301C33.4999 64.1036 32.5652 65.0277 31.5816 65.8981C31.1097 66.2326 30.5947 66.5018 30.0506 66.6981C29.4853 66.7472 28.9181 66.6285 28.42 66.3566C27.9219 66.0848 27.5152 65.6721 27.2506 65.1701C26.9873 64.7316 26.8681 64.2215 26.9099 63.7116C26.9517 63.2018 27.1523 62.7179 27.4836 62.3281C28.4805 61.1717 29.56 60.0892 30.7136 59.0891C30.9765 58.8647 31.281 58.6944 31.6098 58.5878C31.9386 58.4813 32.2852 58.4406 32.6297 58.4682C32.9742 58.4958 33.3099 58.5911 33.6176 58.7486C33.9252 58.9061 34.1988 59.1227 34.4226 59.3861ZM16.5226 41.7861C16.2869 41.2803 15.9148 40.8502 15.448 40.5442C14.9813 40.2382 14.4385 40.0685 13.8806 40.0541C13.2891 40.2556 12.7266 40.534 12.2076 40.8821C11.1772 41.7917 10.2018 42.7617 9.2866 43.7871C9.04105 44.041 8.84877 44.3415 8.7211 44.6708C8.59343 45.0002 8.53294 45.3517 8.54319 45.7048C8.55344 46.0579 8.63422 46.4053 8.78079 46.7267C8.92735 47.0481 9.13673 47.3369 9.3966 47.5761C9.88647 48.0736 10.5506 48.361 11.2486 48.3776C11.9466 48.3942 12.6236 48.1387 13.1366 47.6651C14.179 46.7231 15.1723 45.7281 16.1126 44.6841C16.4813 44.3077 16.72 43.8232 16.7938 43.3015C16.8676 42.7797 16.7725 42.248 16.5226 41.7841V41.7861ZM22.0326 47.0221C21.5083 46.542 20.821 46.2793 20.1101 46.2872C19.3992 46.2952 18.718 46.5733 18.2046 47.0651C17.2342 47.9484 16.3119 48.8831 15.4416 49.8651C15.1229 50.3081 14.8677 50.7934 14.6836 51.3071C14.6166 51.8874 14.7306 52.4741 15.0101 52.987C15.2895 53.4999 15.7207 53.9139 16.2446 54.1721C16.72 54.4314 17.2651 54.5339 17.8021 54.4652C18.3392 54.3964 18.8409 54.1598 19.2356 53.7891C20.2536 52.8681 21.2356 51.9041 22.1596 50.8891C22.4131 50.6309 22.6116 50.3239 22.743 49.9867C22.8745 49.6495 22.9361 49.2891 22.9242 48.9274C22.9123 48.5658 22.8272 48.2102 22.674 47.8824C22.5207 47.5545 22.3025 47.2612 22.0326 47.0201V47.0221ZM29.0596 55.5221C28.9516 54.0221 28.4746 53.1221 27.3816 52.6311C26.8817 52.3871 26.317 52.3085 25.7694 52.4066C25.2218 52.5048 24.7197 52.7746 24.3356 53.1771C23.4156 54.0251 22.5356 54.9231 21.6726 55.8261C21.4048 56.0786 21.1903 56.3822 21.0419 56.719C20.8934 57.0558 20.8141 57.4189 20.8085 57.787C20.8029 58.155 20.8712 58.5204 21.0093 58.8615C21.1474 59.2027 21.3526 59.5127 21.6126 59.7731C21.8744 60.0323 22.1851 60.2369 22.5266 60.3751C22.8681 60.5132 23.2336 60.5822 23.602 60.578C23.9704 60.5738 24.3342 60.4966 24.6725 60.3507C25.0108 60.2048 25.3167 59.9932 25.5726 59.7281C26.4794 58.9085 27.3413 58.0406 28.1546 57.1281C28.5175 56.6286 28.8212 56.0887 29.0596 55.5191V55.5221ZM70.3306 15.8731C69.7816 15.0784 69.1692 14.3293 68.4996 13.6331C67.8353 12.9173 67.1172 12.2533 66.3516 11.6471C65.354 10.8769 64.2696 10.2261 63.1206 9.70813C60.0096 8.25248 56.6329 7.45061 53.1996 7.35213C49.7073 7.43891 46.2864 8.35988 43.2226 10.0381C40.7716 11.4918 38.5581 13.313 36.6596 15.4381C33.7716 18.3451 30.8416 21.2121 27.9596 24.1231C27.5702 24.4839 27.2662 24.9271 27.0698 25.4203C26.8734 25.9135 26.7895 26.4444 26.8243 26.9741C26.8591 27.5038 27.0116 28.0191 27.2708 28.4824C27.53 28.9457 27.8894 29.3453 28.3226 29.6521C28.9946 30.1476 29.8206 30.3888 30.6537 30.3328C31.4867 30.2767 32.273 29.9272 32.8726 29.3461C34.2196 28.0801 41.0196 21.4581 42.9726 19.4941C53.2256 29.6501 60.7296 37.1481 62.5356 39.0001C63.7916 40.2871 64.9486 41.4911 64.9486 41.4911C65.7576 42.3401 66.5796 43.2091 67.4406 44.1071C68.0236 43.3721 68.6706 42.6381 69.3016 41.8751C69.9364 41.1082 70.5286 40.307 71.0756 39.4751C72.9335 36.5135 74.0691 33.1565 74.3906 29.6751C74.6252 25.8649 73.7942 22.0646 71.9906 18.7001C71.4998 17.7224 70.9453 16.7781 70.3306 15.8731ZM42.9686 23.8491C40.1346 26.6051 35.7416 30.9101 34.6456 31.8721C33.374 32.9296 31.7555 33.4779 30.103 33.411C28.4505 33.3441 26.8816 32.6669 25.6996 31.5101C24.5146 30.3549 23.8069 28.7966 23.7167 27.1441C23.6265 25.4916 24.1604 23.8655 25.2126 22.5881C26.0766 21.5611 27.0586 20.6321 28.0126 19.6791C30.3806 17.3001 32.7646 14.9281 35.1996 12.5001C32.5344 10.1013 29.2798 8.45335 25.7687 7.72489C22.2577 6.99644 18.6162 7.21358 15.2166 8.35413C6.6856 11.2531 1.7386 17.3451 0.733597 26.3201C0.389481 29.2069 0.686799 32.1341 1.60433 34.8928C2.52187 37.6514 4.03699 40.1735 6.0416 42.2791C7.4276 41.0131 8.6996 39.8201 9.9996 38.6651C10.673 38.0225 11.4911 37.5513 12.3848 37.2911C13.2785 37.0309 14.2217 36.9894 15.1348 37.1701C16.0479 37.3507 16.9042 37.7483 17.6314 38.3293C18.3587 38.9102 18.9356 39.6575 19.3136 40.5081C19.6383 41.3569 19.8889 42.2322 20.0626 43.1241C23.7426 43.4471 25.7476 45.5071 26.0766 49.2161C29.8506 49.5581 31.8876 51.5981 32.1906 55.2971C32.2971 55.3323 32.4066 55.358 32.5176 55.3741C33.4164 55.3991 34.2976 55.6291 35.0939 56.0467C35.8902 56.4643 36.5806 57.0584 37.1122 57.7835C37.6438 58.5087 38.0026 59.3458 38.1613 60.2308C38.32 61.1159 38.2742 62.0255 38.0276 62.8901C38.0001 63.0169 38.0006 63.1481 38.0289 63.2747C38.0572 63.4013 38.1127 63.5202 38.1916 63.6231C39.2806 64.7391 40.3666 65.8641 41.5336 66.8961C42.0061 67.2704 42.5927 67.4714 43.1954 67.4653C43.7982 67.4593 44.3807 67.2468 44.8456 66.8631C45.1754 66.61 45.4439 66.2858 45.631 65.9145C45.8181 65.5433 45.9191 65.1346 45.9264 64.719C45.9337 64.3033 45.8472 63.8913 45.6732 63.5137C45.4992 63.1361 45.2423 62.8027 44.9216 62.5381C42.1756 59.7901 39.4166 57.0561 36.6726 54.3061C36.5508 54.1832 36.4407 54.0493 36.3436 53.9061L31.5696 49.1321C31.2964 48.8492 31.1452 48.4703 31.1486 48.077C31.152 47.6837 31.3098 47.3075 31.5879 47.0294C31.866 46.7513 32.2422 46.5935 32.6355 46.5901C33.0288 46.5867 33.4077 46.7379 33.6906 47.0111L38.4906 51.8111C38.6202 51.902 38.7428 52.0022 38.8576 52.1111C39.7216 52.9321 40.5906 53.7491 41.4386 54.5861C43.4186 56.5431 45.3686 58.5301 47.3696 60.4651C47.6373 60.741 47.9598 60.9576 48.3165 61.1009C48.6731 61.2442 49.0559 61.311 49.44 61.2971C49.8241 61.2831 50.201 61.1887 50.5463 61.0199C50.8916 60.8511 51.1977 60.6117 51.4446 60.3171C51.9039 59.7532 52.128 59.0338 52.07 58.3087C52.0121 57.5837 51.6767 56.909 51.1336 56.4251C48.3336 53.6061 45.5056 50.8061 42.6906 47.9951C41.3486 46.6551 39.9906 45.3321 38.6836 43.9571C38.5359 43.8214 38.4178 43.6568 38.3365 43.4735C38.2552 43.2902 38.2124 43.0921 38.2109 42.8916C38.2094 42.6911 38.2492 42.4924 38.3277 42.3079C38.4063 42.1234 38.522 41.957 38.6676 41.8191C38.9528 41.5335 39.3379 41.3701 39.7415 41.3636C40.1451 41.357 40.5353 41.5079 40.8296 41.7841C41.0169 41.9399 41.1945 42.1069 41.3616 42.2841C45.3506 46.2551 49.3286 50.2361 53.3396 54.1841C53.7704 54.6091 54.3015 54.9187 54.8836 55.0841C55.4536 55.2293 56.0557 55.181 56.5953 54.9467C57.1349 54.7125 57.5814 54.3057 57.8646 53.7901C58.1621 53.2668 58.2791 52.6602 58.1976 52.0638C58.1161 51.4674 57.8406 50.9144 57.4136 50.4901C54.3576 47.4051 51.2756 44.3441 48.2026 41.2751C47.1026 40.1751 45.9756 39.0911 44.8936 37.9681C44.7353 37.8325 44.6058 37.6665 44.5129 37.4799C44.4199 37.2933 44.3654 37.0899 44.3525 36.8818C44.3397 36.6738 44.3687 36.4652 44.438 36.2686C44.5072 36.072 44.6152 35.8912 44.7556 35.7371C44.9079 35.5851 45.089 35.4649 45.2883 35.3836C45.4875 35.3022 45.701 35.2614 45.9162 35.2635C46.1314 35.2655 46.3441 35.3104 46.5418 35.3955C46.7394 35.4806 46.9182 35.6042 47.0676 35.7591C47.2056 35.8781 47.3256 36.0201 47.4556 36.1491C51.4183 40.1011 55.3839 44.0515 59.3526 48.0001C59.7342 48.4417 60.2354 48.7635 60.7956 48.9269C61.3559 49.0903 61.9514 49.0883 62.5106 48.9211L62.5886 48.8941C63.037 48.7128 63.4307 48.418 63.7309 48.0387C64.0311 47.6595 64.2277 47.2087 64.3013 46.7306C64.3749 46.2525 64.323 45.7635 64.1507 45.3115C63.9785 44.8595 63.6917 44.46 63.3186 44.1521C58.8306 39.6611 48.6996 29.5471 42.9686 23.8491Z" fill="#00ADEF"/>
</g>
<path d="M98.097 27.894C99.281 27.894 100.44 27.6227 101.575 27.08C102.71 26.5373 103.857 25.6247 105.016 24.342L108.642 27.783C107.187 29.6577 105.522 31.076 103.647 32.038C101.797 33 99.8853 33.481 97.912 33.481C96.136 33.481 94.471 33.1233 92.917 32.408C91.363 31.668 90.0063 30.6813 88.847 29.448C87.7123 28.2147 86.812 26.784 86.146 25.156C85.5047 23.5033 85.184 21.752 85.184 19.902C85.184 18.052 85.517 16.313 86.183 14.685C86.8737 13.057 87.7987 11.6263 88.958 10.393C90.1173 9.15967 91.4863 8.18533 93.065 7.47C94.6437 6.75466 96.321 6.397 98.097 6.397C99.7497 6.397 101.316 6.70533 102.796 7.322C104.301 7.93867 105.768 8.96233 107.199 10.393L103.943 14.352C102.907 13.39 101.92 12.7487 100.983 12.428C100.07 12.0827 99.1083 11.91 98.097 11.91C97.0857 11.91 96.1237 12.1197 95.211 12.539C94.323 12.9583 93.546 13.5257 92.88 14.241C92.214 14.9563 91.6837 15.8073 91.289 16.794C90.919 17.756 90.734 18.792 90.734 19.902C90.734 21.012 90.919 22.048 91.289 23.01C91.6837 23.972 92.214 24.823 92.88 25.563C93.546 26.2783 94.323 26.8457 95.211 27.265C96.1237 27.6843 97.0857 27.894 98.097 27.894ZM130.595 14.648V33H126.192L125.674 31.039C124.958 32.001 124.095 32.6423 123.084 32.963C122.097 33.2837 121.061 33.444 119.976 33.444C118.668 33.444 117.46 33.1973 116.35 32.704C115.264 32.186 114.315 31.4953 113.501 30.632C112.687 29.744 112.045 28.7203 111.577 27.561C111.133 26.377 110.911 25.119 110.911 23.787C110.911 22.455 111.133 21.2093 111.577 20.05C112.045 18.866 112.687 17.8423 113.501 16.979C114.315 16.091 115.264 15.4003 116.35 14.907C117.46 14.389 118.668 14.13 119.976 14.13C121.16 14.13 122.245 14.315 123.232 14.685C124.218 15.055 125.032 15.647 125.674 16.461L126.192 14.648H130.595ZM125.489 23.861C125.489 22.899 125.353 22.0973 125.082 21.456C124.835 20.79 124.49 20.2597 124.046 19.865C123.626 19.4457 123.121 19.1497 122.529 18.977C121.961 18.7797 121.345 18.681 120.679 18.681C120.013 18.681 119.384 18.8167 118.792 19.088C118.224 19.3593 117.719 19.7293 117.275 20.198C116.831 20.642 116.485 21.1847 116.239 21.826C115.992 22.4427 115.869 23.0963 115.869 23.787C115.869 24.5023 115.992 25.1683 116.239 25.785C116.485 26.4017 116.831 26.9443 117.275 27.413C117.719 27.857 118.224 28.2147 118.792 28.486C119.384 28.7573 120.013 28.893 120.679 28.893C122.011 28.893 123.133 28.486 124.046 27.672C124.983 26.8333 125.464 25.563 125.489 23.861ZM143.448 14.648C144.139 14.648 144.904 14.7467 145.742 14.944C146.581 15.1413 147.37 15.5113 148.11 16.054C148.85 16.5967 149.467 17.349 149.96 18.311C150.478 19.273 150.737 20.5187 150.737 22.048V33H145.594V22.233C145.594 21.6657 145.496 21.1847 145.298 20.79C145.126 20.3953 144.879 20.087 144.558 19.865C144.262 19.6183 143.917 19.4457 143.522 19.347C143.128 19.2237 142.733 19.162 142.338 19.162C142.018 19.162 141.66 19.2237 141.265 19.347C140.895 19.4457 140.538 19.6183 140.192 19.865C139.872 20.1117 139.6 20.4323 139.378 20.827C139.156 21.2217 139.045 21.6903 139.045 22.233V33H133.939V14.648H138.305L139.045 16.054C139.637 15.6347 140.303 15.3017 141.043 15.055C141.783 14.7837 142.585 14.648 143.448 14.648ZM173.123 14.648V33H168.72L168.202 31.039C167.487 32.001 166.623 32.6423 165.612 32.963C164.625 33.2837 163.589 33.444 162.504 33.444C161.197 33.444 159.988 33.1973 158.878 32.704C157.793 32.186 156.843 31.4953 156.029 30.632C155.215 29.744 154.574 28.7203 154.105 27.561C153.661 26.377 153.439 25.119 153.439 23.787C153.439 22.455 153.661 21.2093 154.105 20.05C154.574 18.866 155.215 17.8423 156.029 16.979C156.843 16.091 157.793 15.4003 158.878 14.907C159.988 14.389 161.197 14.13 162.504 14.13C163.688 14.13 164.773 14.315 165.76 14.685C166.747 15.055 167.561 15.647 168.202 16.461L168.72 14.648H173.123ZM168.017 23.861C168.017 22.899 167.881 22.0973 167.61 21.456C167.363 20.79 167.018 20.2597 166.574 19.865C166.155 19.4457 165.649 19.1497 165.057 18.977C164.49 18.7797 163.873 18.681 163.207 18.681C162.541 18.681 161.912 18.8167 161.32 19.088C160.753 19.3593 160.247 19.7293 159.803 20.198C159.359 20.642 159.014 21.1847 158.767 21.826C158.52 22.4427 158.397 23.0963 158.397 23.787C158.397 24.5023 158.52 25.1683 158.767 25.785C159.014 26.4017 159.359 26.9443 159.803 27.413C160.247 27.857 160.753 28.2147 161.32 28.486C161.912 28.7573 162.541 28.893 163.207 28.893C164.539 28.893 165.661 28.486 166.574 27.672C167.511 26.8333 167.992 25.563 168.017 23.861ZM194.931 5.99V33H190.565L189.825 31.409C189.257 32.001 188.468 32.4943 187.457 32.889C186.47 33.259 185.434 33.444 184.349 33.444C183.041 33.444 181.833 33.1973 180.723 32.704C179.613 32.186 178.651 31.4953 177.837 30.632C177.047 29.744 176.418 28.7203 175.95 27.561C175.506 26.377 175.284 25.119 175.284 23.787C175.284 22.455 175.506 21.2093 175.95 20.05C176.418 18.866 177.047 17.8423 177.837 16.979C178.651 16.091 179.613 15.4003 180.723 14.907C181.833 14.389 183.041 14.13 184.349 14.13C185.508 14.13 186.532 14.2657 187.42 14.537C188.332 14.8083 189.134 15.2647 189.825 15.906V5.99H194.931ZM189.825 23.861C189.825 22.899 189.701 22.0973 189.455 21.456C189.208 20.79 188.863 20.2597 188.419 19.865C187.975 19.4457 187.457 19.1497 186.865 18.977C186.297 18.7797 185.681 18.681 185.015 18.681C184.349 18.681 183.72 18.8167 183.128 19.088C182.56 19.3593 182.055 19.7293 181.611 20.198C181.191 20.642 180.858 21.1847 180.612 21.826C180.365 22.4427 180.242 23.0963 180.242 23.787C180.242 24.5023 180.365 25.1683 180.612 25.785C180.858 26.4017 181.191 26.9443 181.611 27.413C182.055 27.857 182.56 28.2147 183.128 28.486C183.72 28.7573 184.349 28.893 185.015 28.893C186.347 28.893 187.469 28.486 188.382 27.672C189.319 26.8333 189.8 25.563 189.825 23.861ZM217.458 14.648V33H213.055L212.537 31.039C211.822 32.001 210.958 32.6423 209.947 32.963C208.96 33.2837 207.924 33.444 206.839 33.444C205.532 33.444 204.323 33.1973 203.213 32.704C202.128 32.186 201.178 31.4953 200.364 30.632C199.55 29.744 198.909 28.7203 198.44 27.561C197.996 26.377 197.774 25.119 197.774 23.787C197.774 22.455 197.996 21.2093 198.44 20.05C198.909 18.866 199.55 17.8423 200.364 16.979C201.178 16.091 202.128 15.4003 203.213 14.907C204.323 14.389 205.532 14.13 206.839 14.13C208.023 14.13 209.108 14.315 210.095 14.685C211.082 15.055 211.896 15.647 212.537 16.461L213.055 14.648H217.458ZM212.352 23.861C212.352 22.899 212.216 22.0973 211.945 21.456C211.698 20.79 211.353 20.2597 210.909 19.865C210.49 19.4457 209.984 19.1497 209.392 18.977C208.825 18.7797 208.208 18.681 207.542 18.681C206.876 18.681 206.247 18.8167 205.655 19.088C205.088 19.3593 204.582 19.7293 204.138 20.198C203.694 20.642 203.349 21.1847 203.102 21.826C202.855 22.4427 202.732 23.0963 202.732 23.787C202.732 24.5023 202.855 25.1683 203.102 25.785C203.349 26.4017 203.694 26.9443 204.138 27.413C204.582 27.857 205.088 28.2147 205.655 28.486C206.247 28.7573 206.876 28.893 207.542 28.893C208.874 28.893 209.996 28.486 210.909 27.672C211.846 26.8333 212.327 25.563 212.352 23.861Z" fill="#00ADEF"/>
<path d="M97.5859 43.4658C97.5859 43.9235 97.4775 44.333 97.2607 44.6943C97.068 45.0557 96.8031 45.3688 96.4658 45.6338C96.1286 45.8747 95.7552 46.0794 95.3457 46.248C94.9362 46.4167 94.5387 46.5371 94.1533 46.6094C94.1051 49.3314 93.9967 51.957 93.8281 54.4863C93.6836 57.0156 93.4427 59.6292 93.1055 62.3271H93.3223C93.7077 62.3271 94.0811 62.3753 94.4424 62.4717C94.8278 62.5439 95.165 62.6885 95.4541 62.9053C95.7673 63.098 96.0081 63.3509 96.1768 63.6641C96.3695 63.9531 96.4658 64.3145 96.4658 64.748C96.4658 65.3021 96.2852 65.7839 95.9238 66.1934C95.5866 66.6029 95.1289 66.9521 94.5508 67.2412C93.9967 67.5303 93.3704 67.7712 92.6719 67.9639C91.9733 68.1566 91.2747 68.3011 90.5762 68.3975C89.8776 68.5179 89.2152 68.6022 88.5889 68.6504C87.9626 68.6986 87.4567 68.7227 87.0713 68.7227C86.7822 68.7227 86.4209 68.7106 85.9873 68.6865C85.5778 68.6624 85.1803 68.5902 84.7949 68.4697C84.4336 68.3493 84.1204 68.1686 83.8555 67.9277C83.5905 67.6868 83.458 67.3617 83.458 66.9521C83.458 66.4463 83.5664 66.0007 83.7832 65.6152C83.9759 65.2057 84.2409 64.8444 84.5781 64.5312C84.9154 64.2181 85.2887 63.9652 85.6982 63.7725C86.1318 63.5798 86.5654 63.4352 86.999 63.3389C87.1676 62.014 87.3242 60.7012 87.4688 59.4004C87.6133 58.0755 87.7096 56.7386 87.7578 55.3896C87.806 54.0166 87.8542 52.6676 87.9023 51.3428C87.9505 49.9938 87.9987 48.6449 88.0469 47.2959C87.8783 47.32 87.7217 47.3441 87.5771 47.3682C87.4326 47.3682 87.3001 47.3682 87.1797 47.3682C86.8424 47.3682 86.4811 47.332 86.0957 47.2598C85.7103 47.1875 85.349 47.0671 85.0117 46.8984C84.6745 46.7057 84.3854 46.4769 84.1445 46.2119C83.9277 45.9469 83.8193 45.6097 83.8193 45.2002C83.8193 44.3812 84.1566 43.7067 84.8311 43.1768C85.5296 42.6468 86.3486 42.2373 87.2881 41.9482C88.2516 41.6592 89.2272 41.4665 90.2148 41.3701C91.2025 41.2497 91.9974 41.1895 92.5996 41.1895C92.9368 41.1895 93.3825 41.2135 93.9365 41.2617C94.4906 41.3099 95.0326 41.4183 95.5625 41.5869C96.1165 41.7555 96.5863 41.9844 96.9717 42.2734C97.3812 42.5625 97.5859 42.96 97.5859 43.4658ZM108.354 69.0117C107.944 69.0117 107.619 68.819 107.378 68.4336C107.137 68.0723 106.956 67.6507 106.836 67.1689C106.715 66.6872 106.631 66.2054 106.583 65.7236C106.559 65.2178 106.547 64.8324 106.547 64.5674C106.547 63.8447 106.583 63.1221 106.655 62.3994C106.752 61.6768 106.848 60.9541 106.944 60.2314C107.065 59.5088 107.161 58.7861 107.233 58.0635C107.33 57.3408 107.378 56.6182 107.378 55.8955C107.378 55.6064 107.366 55.2933 107.342 54.9561C107.318 54.6188 107.257 54.3057 107.161 54.0166C107.089 53.7035 106.956 53.4505 106.764 53.2578C106.571 53.0651 106.318 52.9688 106.005 52.9688C105.788 52.9688 105.547 53.1494 105.282 53.5107C105.017 53.848 104.764 54.2454 104.523 54.7031C104.307 55.1367 104.114 55.5824 103.945 56.04C103.801 56.4736 103.729 56.7988 103.729 57.0156C103.729 57.5456 103.729 58.0876 103.729 58.6416C103.753 59.1715 103.765 59.7135 103.765 60.2676V62.3633C103.741 62.7969 103.704 63.2425 103.656 63.7002C103.608 64.1579 103.536 64.6035 103.439 65.0371C103.367 65.4707 103.259 65.8923 103.114 66.3018C102.97 66.6872 102.777 67.0365 102.536 67.3496C102.319 67.6387 102.054 67.8796 101.741 68.0723C101.428 68.265 101.055 68.3613 100.621 68.3613C100.139 68.3613 99.7419 68.2048 99.4287 67.8916C99.1156 67.5785 98.8626 67.181 98.6699 66.6992C98.4772 66.1934 98.3327 65.6393 98.2363 65.0371C98.1641 64.4108 98.1038 63.8086 98.0557 63.2305C98.0316 62.6283 98.0195 62.0863 98.0195 61.6045C98.0436 61.0986 98.0557 60.7012 98.0557 60.4121V58.7139C98.0557 57.7985 98.0316 56.8952 97.9834 56.0039C97.9593 55.1126 97.9473 54.2214 97.9473 53.3301C97.9473 52.8483 97.9473 52.234 97.9473 51.4873C97.9714 50.7406 98.0677 50.0179 98.2363 49.3193C98.4049 48.5967 98.682 47.9824 99.0674 47.4766C99.4528 46.9707 100.019 46.7178 100.766 46.7178C101.103 46.7178 101.404 46.8262 101.669 47.043C101.934 47.2598 102.163 47.5247 102.355 47.8379C102.572 48.151 102.741 48.4883 102.861 48.8496C103.006 49.2109 103.114 49.5241 103.187 49.7891C103.427 49.4518 103.704 49.1266 104.018 48.8135C104.355 48.5003 104.728 48.2233 105.138 47.9824C105.547 47.7415 106.005 47.5488 106.511 47.4043C107.017 47.2598 107.595 47.1875 108.245 47.1875C109.474 47.1875 110.425 47.4886 111.1 48.0908C111.798 48.6689 112.304 49.4036 112.617 50.2949C112.954 51.1621 113.159 52.1016 113.231 53.1133C113.304 54.125 113.34 55.0404 113.34 55.8594C113.34 56.2689 113.304 56.8831 113.231 57.7021C113.159 58.4971 113.039 59.3883 112.87 60.376C112.726 61.3395 112.521 62.3392 112.256 63.375C111.991 64.3867 111.678 65.3141 111.316 66.1572C110.955 67.0003 110.521 67.6868 110.016 68.2168C109.534 68.7467 108.98 69.0117 108.354 69.0117ZM130.937 55.0645C130.31 56.7266 129.624 58.4609 128.877 60.2676C128.13 62.0742 127.323 63.7604 126.456 65.3262C125.926 66.2897 125.336 67.0967 124.686 67.7471C124.035 68.3734 123.288 68.6865 122.445 68.6865C121.771 68.6865 121.108 68.3493 120.458 67.6748C119.832 66.9762 119.242 66.1572 118.688 65.2178C118.158 64.2542 117.688 63.2907 117.278 62.3271C116.893 61.3395 116.604 60.5566 116.411 59.9785C116.218 59.3281 116.002 58.6296 115.761 57.8828C115.52 57.1361 115.303 56.3773 115.11 55.6064C114.918 54.8356 114.761 54.0768 114.641 53.3301C114.52 52.5592 114.46 51.8366 114.46 51.1621C114.46 50.2227 114.629 49.4518 114.966 48.8496C115.303 48.2474 115.965 47.9463 116.953 47.9463C117.339 47.9463 117.688 48.0667 118.001 48.3076C118.314 48.5244 118.603 48.8376 118.868 49.2471C119.133 49.6566 119.386 50.1383 119.627 50.6924C119.868 51.2223 120.097 51.8125 120.313 52.4629C120.53 53.0892 120.735 53.7396 120.928 54.4141C121.12 55.0885 121.313 55.7389 121.506 56.3652C121.699 56.9915 121.891 57.6058 122.084 58.208C122.301 58.7861 122.578 59.3643 122.915 59.9424C123.084 59.5088 123.276 59.015 123.493 58.4609C123.71 57.9069 123.939 57.3167 124.18 56.6904C124.445 56.0641 124.722 55.4258 125.011 54.7754C125.3 54.1009 125.613 53.4505 125.95 52.8242C126.601 51.5234 127.287 50.4154 128.01 49.5C128.757 48.5846 129.491 48.127 130.214 48.127C130.888 48.127 131.37 48.3317 131.659 48.7412C131.948 49.1507 132.093 49.6807 132.093 50.3311C132.093 50.9814 131.984 51.7161 131.768 52.5352C131.551 53.3542 131.274 54.1973 130.937 55.0645ZM148.497 61.5684C148.497 62.3874 148.232 63.1943 147.702 63.9893C147.196 64.7601 146.546 65.4587 145.751 66.085C144.98 66.6872 144.149 67.181 143.258 67.5664C142.367 67.9277 141.548 68.1084 140.801 68.1084C139.524 68.1084 138.38 67.7952 137.368 67.1689C136.381 66.5186 135.549 65.6995 134.875 64.7119C134.201 63.7243 133.683 62.6403 133.321 61.46C132.984 60.2555 132.815 59.0872 132.815 57.9551C132.815 56.7507 132.984 55.4619 133.321 54.0889C133.659 52.7158 134.164 51.4512 134.839 50.2949C135.537 49.1387 136.405 48.1751 137.44 47.4043C138.5 46.6335 139.753 46.248 141.198 46.248C142.017 46.248 142.8 46.3926 143.547 46.6816C144.294 46.9466 144.944 47.332 145.498 47.8379C146.052 48.3438 146.498 48.946 146.835 49.6445C147.172 50.3431 147.341 51.126 147.341 51.9932C147.341 53.1253 147.1 54.1852 146.618 55.1729C146.136 56.1605 145.498 57.0156 144.703 57.7383C143.908 58.4609 142.993 59.0511 141.957 59.5088C140.921 59.9424 139.861 60.1833 138.777 60.2314C138.874 60.93 139.151 61.4359 139.608 61.749C140.09 62.0622 140.656 62.2188 141.307 62.2188C141.788 62.2188 142.258 62.0983 142.716 61.8574C143.174 61.6165 143.619 61.3516 144.053 61.0625C144.486 60.7493 144.908 60.4723 145.317 60.2314C145.751 59.9906 146.185 59.8701 146.618 59.8701C147.1 59.8701 147.534 60.0267 147.919 60.3398C148.304 60.653 148.497 61.0625 148.497 61.5684ZM142.644 52.7158C142.644 52.4027 142.559 52.0775 142.391 51.7402C142.222 51.403 141.957 51.2344 141.596 51.2344C141.066 51.2344 140.62 51.3789 140.259 51.668C139.897 51.9329 139.596 52.2822 139.355 52.7158C139.115 53.1253 138.922 53.571 138.777 54.0527C138.657 54.5345 138.585 54.9801 138.561 55.3896C138.898 55.3174 139.295 55.221 139.753 55.1006C140.235 54.9801 140.68 54.8236 141.09 54.6309C141.523 54.4141 141.885 54.1491 142.174 53.8359C142.487 53.5228 142.644 53.1494 142.644 52.7158ZM160.529 48.127C160.529 48.8255 160.288 49.3434 159.807 49.6807C159.349 50.0179 158.831 50.3431 158.253 50.6562C157.675 50.9453 157.145 51.2946 156.663 51.7041C156.205 52.1136 155.977 52.7279 155.977 53.5469C155.977 53.9805 156.073 54.3538 156.266 54.667C156.482 54.9801 156.735 55.2692 157.024 55.5342C157.338 55.7751 157.675 56.028 158.036 56.293C158.397 56.5579 158.723 56.859 159.012 57.1963C159.325 57.5335 159.578 57.943 159.771 58.4248C159.987 58.9066 160.096 59.4967 160.096 60.1953C160.096 61.207 159.831 62.2067 159.301 63.1943C158.795 64.1579 158.132 65.0251 157.313 65.7959C156.519 66.5426 155.615 67.1449 154.604 67.6025C153.592 68.0602 152.592 68.2891 151.604 68.2891C151.195 68.2891 150.785 68.2529 150.376 68.1807C149.966 68.1325 149.593 68.0241 149.256 67.8555C148.943 67.6868 148.678 67.458 148.461 67.1689C148.244 66.8558 148.136 66.4583 148.136 65.9766C148.136 65.3021 148.268 64.7842 148.533 64.4229C148.798 64.0374 149.135 63.7363 149.545 63.5195C149.954 63.3027 150.388 63.1341 150.846 63.0137C151.327 62.8932 151.773 62.7487 152.183 62.5801C152.592 62.3874 152.929 62.1465 153.194 61.8574C153.459 61.5684 153.592 61.1589 153.592 60.6289C153.592 60.123 153.387 59.6051 152.978 59.0752C152.592 58.5212 152.159 57.943 151.677 57.3408C151.195 56.7145 150.749 56.0521 150.34 55.3535C149.954 54.6549 149.762 53.8841 149.762 53.041C149.762 52.0052 149.966 51.0537 150.376 50.1865C150.81 49.2952 151.376 48.5244 152.074 47.874C152.797 47.2236 153.616 46.7178 154.531 46.3564C155.447 45.971 156.41 45.7783 157.422 45.7783C157.807 45.7783 158.181 45.8145 158.542 45.8867C158.927 45.959 159.265 46.0915 159.554 46.2842C159.843 46.4528 160.072 46.6937 160.24 47.0068C160.433 47.2959 160.529 47.6693 160.529 48.127ZM170.394 69.3008C168.683 69.3008 167.346 69.0719 166.383 68.6143C165.443 68.1807 164.733 67.5544 164.251 66.7354C163.793 65.9163 163.516 64.9287 163.42 63.7725C163.324 62.6162 163.275 61.3275 163.275 59.9062C163.275 58.7741 163.312 57.6419 163.384 56.5098C163.456 55.3535 163.564 54.125 163.709 52.8242C163.372 52.8242 163.107 52.8363 162.914 52.8604C162.721 52.8604 162.565 52.8604 162.444 52.8604C161.674 52.8604 161.011 52.6917 160.457 52.3545C159.879 52.0173 159.59 51.4993 159.59 50.8008C159.59 50.3672 159.758 49.9818 160.096 49.6445C160.409 49.3073 160.818 49.0182 161.324 48.7773C161.83 48.5365 162.372 48.3438 162.95 48.1992C163.552 48.0547 164.118 47.9583 164.648 47.9102C164.648 47.2357 164.697 46.4889 164.793 45.6699C164.889 44.8509 165.058 44.0921 165.299 43.3936C165.564 42.6709 165.913 42.0687 166.347 41.5869C166.78 41.1051 167.334 40.8643 168.009 40.8643C168.394 40.8643 168.731 40.9847 169.021 41.2256C169.334 41.4424 169.587 41.7314 169.779 42.0928C169.972 42.43 170.117 42.8154 170.213 43.249C170.309 43.6826 170.357 44.1042 170.357 44.5137C170.357 44.9954 170.321 45.4893 170.249 45.9951C170.177 46.501 170.044 47.1273 169.852 47.874C170.261 47.8258 170.538 47.8018 170.683 47.8018C170.827 47.7777 170.96 47.7656 171.08 47.7656C171.49 47.7656 171.911 47.8018 172.345 47.874C172.802 47.9463 173.212 48.0667 173.573 48.2354C173.959 48.404 174.272 48.6328 174.513 48.9219C174.754 49.1868 174.874 49.512 174.874 49.8975C174.874 50.3311 174.693 50.7165 174.332 51.0537C173.995 51.391 173.561 51.68 173.031 51.9209C172.501 52.1618 171.935 52.3545 171.333 52.499C170.731 52.6195 170.165 52.7038 169.635 52.752C169.49 53.7396 169.382 54.6549 169.31 55.498C169.261 56.3171 169.201 57.1481 169.129 57.9912C169.081 58.4007 169.033 58.8223 168.984 59.2559C168.96 59.6654 168.948 60.0869 168.948 60.5205C168.948 60.8337 168.96 61.207 168.984 61.6406C169.008 62.0501 169.093 62.4476 169.237 62.833C169.382 63.2184 169.611 63.5557 169.924 63.8447C170.237 64.1097 170.671 64.2422 171.225 64.2422C171.562 64.2422 171.911 64.2181 172.272 64.1699C172.634 64.0977 172.995 64.0615 173.356 64.0615C173.983 64.0615 174.428 64.2783 174.693 64.7119C174.982 65.1455 175.127 65.6995 175.127 66.374C175.127 66.8799 174.97 67.3255 174.657 67.7109C174.368 68.0723 173.995 68.3613 173.537 68.5781C173.079 68.819 172.562 68.9997 171.983 69.1201C171.429 69.2406 170.899 69.3008 170.394 69.3008ZM197.782 56.0762C197.782 56.5339 197.782 57.1602 197.782 57.9551C197.782 58.7259 197.758 59.569 197.71 60.4844C197.686 61.3997 197.614 62.3271 197.493 63.2666C197.373 64.182 197.18 65.013 196.915 65.7598C196.674 66.5065 196.361 67.1208 195.976 67.6025C195.59 68.0843 195.096 68.3252 194.494 68.3252C193.964 68.3252 193.555 68.1084 193.266 67.6748C193.001 67.2171 192.808 66.6872 192.688 66.085C192.567 65.4827 192.495 64.8685 192.471 64.2422C192.471 63.6159 192.471 63.1221 192.471 62.7607C192.471 61.6768 192.507 60.6169 192.579 59.5811C192.651 58.5452 192.688 57.4854 192.688 56.4014C192.688 56.2809 192.688 56.0641 192.688 55.751C192.688 55.4378 192.663 55.1247 192.615 54.8115C192.567 54.4984 192.483 54.2214 192.362 53.9805C192.266 53.7396 192.109 53.6191 191.893 53.6191C191.459 53.6191 191.11 53.848 190.845 54.3057C190.58 54.7393 190.363 55.2572 190.194 55.8594C190.026 56.4616 189.905 57.0638 189.833 57.666C189.761 58.2441 189.713 58.6777 189.688 58.9668C189.64 59.2799 189.592 59.7497 189.544 60.376C189.52 61.0023 189.472 61.6888 189.399 62.4355C189.351 63.1823 189.255 63.9531 189.11 64.748C188.99 65.5189 188.821 66.2295 188.604 66.8799C188.412 67.5062 188.159 68.0241 187.846 68.4336C187.533 68.8431 187.147 69.0479 186.689 69.0479C186.111 69.0479 185.666 68.7949 185.353 68.2891C185.039 67.7832 184.811 67.193 184.666 66.5186C184.521 65.8441 184.425 65.1576 184.377 64.459C184.353 63.7604 184.341 63.2184 184.341 62.833C184.341 62.4235 184.341 62.026 184.341 61.6406C184.365 61.2552 184.377 60.8577 184.377 60.4482C184.377 60.2796 184.377 60.0026 184.377 59.6172C184.377 59.2318 184.365 58.8102 184.341 58.3525C184.341 57.8708 184.317 57.377 184.269 56.8711C184.244 56.3652 184.196 55.9076 184.124 55.498C184.052 55.0645 183.943 54.7152 183.799 54.4502C183.654 54.1852 183.486 54.0527 183.293 54.0527C182.98 54.0527 182.691 54.2575 182.426 54.667C182.161 55.0524 181.932 55.5221 181.739 56.0762C181.547 56.6061 181.39 57.1361 181.27 57.666C181.173 58.196 181.125 58.5814 181.125 58.8223V59.0391C181.125 60.1953 181.197 61.3275 181.342 62.4355C181.486 63.5436 181.559 64.6758 181.559 65.832C181.559 66.5065 181.342 67.1328 180.908 67.7109C180.475 68.265 179.872 68.542 179.102 68.542C178.548 68.542 178.09 68.3372 177.729 67.9277C177.367 67.4941 177.066 66.9401 176.825 66.2656C176.584 65.5911 176.392 64.8564 176.247 64.0615C176.127 63.2425 176.042 62.4476 175.994 61.6768C175.946 60.8818 175.91 60.1712 175.886 59.5449C175.886 58.8945 175.886 58.4128 175.886 58.0996C175.886 57.7383 175.874 57.2083 175.85 56.5098C175.85 55.8112 175.862 55.0524 175.886 54.2334C175.934 53.4144 176.006 52.5833 176.103 51.7402C176.199 50.873 176.355 50.0902 176.572 49.3916C176.789 48.693 177.066 48.127 177.403 47.6934C177.765 47.2357 178.222 47.0068 178.776 47.0068C179.403 47.0068 179.909 47.1755 180.294 47.5127C180.703 47.8499 180.908 48.3558 180.908 49.0303C180.908 49.1748 180.896 49.3193 180.872 49.4639C180.872 49.6084 180.86 49.7409 180.836 49.8613C181.101 49.4759 181.426 49.0905 181.812 48.7051C182.197 48.2956 182.606 47.9342 183.04 47.6211C183.498 47.2839 183.979 47.0189 184.485 46.8262C184.991 46.6094 185.497 46.501 186.003 46.501C186.485 46.501 186.918 46.6335 187.304 46.8984C187.689 47.1634 188.026 47.5007 188.315 47.9102C188.604 48.2956 188.845 48.7171 189.038 49.1748C189.231 49.6325 189.363 50.0661 189.436 50.4756C189.676 50.042 189.965 49.6084 190.303 49.1748C190.664 48.7171 191.049 48.3197 191.459 47.9824C191.868 47.6452 192.314 47.3682 192.796 47.1514C193.302 46.9346 193.82 46.8262 194.35 46.8262C194.855 46.8262 195.289 47.0068 195.65 47.3682C196.012 47.7295 196.325 48.1992 196.59 48.7773C196.855 49.3314 197.06 49.9697 197.204 50.6924C197.349 51.391 197.469 52.0895 197.565 52.7881C197.662 53.4626 197.722 54.1009 197.746 54.7031C197.77 55.2812 197.782 55.7389 197.782 56.0762ZM215.307 61.5684C215.307 62.3874 215.042 63.1943 214.512 63.9893C214.006 64.7601 213.355 65.4587 212.561 66.085C211.79 66.6872 210.959 67.181 210.067 67.5664C209.176 67.9277 208.357 68.1084 207.61 68.1084C206.334 68.1084 205.189 67.7952 204.178 67.1689C203.19 66.5186 202.359 65.6995 201.685 64.7119C201.01 63.7243 200.492 62.6403 200.131 61.46C199.794 60.2555 199.625 59.0872 199.625 57.9551C199.625 56.7507 199.794 55.4619 200.131 54.0889C200.468 52.7158 200.974 51.4512 201.648 50.2949C202.347 49.1387 203.214 48.1751 204.25 47.4043C205.31 46.6335 206.562 46.248 208.008 46.248C208.827 46.248 209.61 46.3926 210.356 46.6816C211.103 46.9466 211.754 47.332 212.308 47.8379C212.862 48.3438 213.307 48.946 213.645 49.6445C213.982 50.3431 214.15 51.126 214.15 51.9932C214.15 53.1253 213.91 54.1852 213.428 55.1729C212.946 56.1605 212.308 57.0156 211.513 57.7383C210.718 58.4609 209.802 59.0511 208.767 59.5088C207.731 59.9424 206.671 60.1833 205.587 60.2314C205.683 60.93 205.96 61.4359 206.418 61.749C206.9 62.0622 207.466 62.2188 208.116 62.2188C208.598 62.2188 209.068 62.0983 209.525 61.8574C209.983 61.6165 210.429 61.3516 210.862 61.0625C211.296 60.7493 211.717 60.4723 212.127 60.2314C212.561 59.9906 212.994 59.8701 213.428 59.8701C213.91 59.8701 214.343 60.0267 214.729 60.3398C215.114 60.653 215.307 61.0625 215.307 61.5684ZM209.453 52.7158C209.453 52.4027 209.369 52.0775 209.2 51.7402C209.032 51.403 208.767 51.2344 208.405 51.2344C207.875 51.2344 207.43 51.3789 207.068 51.668C206.707 51.9329 206.406 52.2822 206.165 52.7158C205.924 53.1253 205.731 53.571 205.587 54.0527C205.466 54.5345 205.394 54.9801 205.37 55.3896C205.707 55.3174 206.105 55.221 206.562 55.1006C207.044 54.9801 207.49 54.8236 207.899 54.6309C208.333 54.4141 208.694 54.1491 208.983 53.8359C209.297 53.5228 209.453 53.1494 209.453 52.7158ZM227.014 69.0117C226.604 69.0117 226.279 68.819 226.038 68.4336C225.797 68.0723 225.617 67.6507 225.496 67.1689C225.376 66.6872 225.291 66.2054 225.243 65.7236C225.219 65.2178 225.207 64.8324 225.207 64.5674C225.207 63.8447 225.243 63.1221 225.315 62.3994C225.412 61.6768 225.508 60.9541 225.604 60.2314C225.725 59.5088 225.821 58.7861 225.894 58.0635C225.99 57.3408 226.038 56.6182 226.038 55.8955C226.038 55.6064 226.026 55.2933 226.002 54.9561C225.978 54.6188 225.918 54.3057 225.821 54.0166C225.749 53.7035 225.617 53.4505 225.424 53.2578C225.231 53.0651 224.978 52.9688 224.665 52.9688C224.448 52.9688 224.207 53.1494 223.942 53.5107C223.677 53.848 223.424 54.2454 223.184 54.7031C222.967 55.1367 222.774 55.5824 222.605 56.04C222.461 56.4736 222.389 56.7988 222.389 57.0156C222.389 57.5456 222.389 58.0876 222.389 58.6416C222.413 59.1715 222.425 59.7135 222.425 60.2676V62.3633C222.401 62.7969 222.365 63.2425 222.316 63.7002C222.268 64.1579 222.196 64.6035 222.1 65.0371C222.027 65.4707 221.919 65.8923 221.774 66.3018C221.63 66.6872 221.437 67.0365 221.196 67.3496C220.979 67.6387 220.715 67.8796 220.401 68.0723C220.088 68.265 219.715 68.3613 219.281 68.3613C218.799 68.3613 218.402 68.2048 218.089 67.8916C217.776 67.5785 217.523 67.181 217.33 66.6992C217.137 66.1934 216.993 65.6393 216.896 65.0371C216.824 64.4108 216.764 63.8086 216.716 63.2305C216.692 62.6283 216.68 62.0863 216.68 61.6045C216.704 61.0986 216.716 60.7012 216.716 60.4121V58.7139C216.716 57.7985 216.692 56.8952 216.644 56.0039C216.619 55.1126 216.607 54.2214 216.607 53.3301C216.607 52.8483 216.607 52.234 216.607 51.4873C216.632 50.7406 216.728 50.0179 216.896 49.3193C217.065 48.5967 217.342 47.9824 217.728 47.4766C218.113 46.9707 218.679 46.7178 219.426 46.7178C219.763 46.7178 220.064 46.8262 220.329 47.043C220.594 47.2598 220.823 47.5247 221.016 47.8379C221.232 48.151 221.401 48.4883 221.521 48.8496C221.666 49.2109 221.774 49.5241 221.847 49.7891C222.088 49.4518 222.365 49.1266 222.678 48.8135C223.015 48.5003 223.388 48.2233 223.798 47.9824C224.207 47.7415 224.665 47.5488 225.171 47.4043C225.677 47.2598 226.255 47.1875 226.905 47.1875C228.134 47.1875 229.085 47.4886 229.76 48.0908C230.458 48.6689 230.964 49.4036 231.277 50.2949C231.615 51.1621 231.819 52.1016 231.892 53.1133C231.964 54.125 232 55.0404 232 55.8594C232 56.2689 231.964 56.8831 231.892 57.7021C231.819 58.4971 231.699 59.3883 231.53 60.376C231.386 61.3395 231.181 62.3392 230.916 63.375C230.651 64.3867 230.338 65.3141 229.977 66.1572C229.615 67.0003 229.182 67.6868 228.676 68.2168C228.194 68.7467 227.64 69.0117 227.014 69.0117ZM242.442 69.3008C240.732 69.3008 239.395 69.0719 238.432 68.6143C237.492 68.1807 236.782 67.5544 236.3 66.7354C235.842 65.9163 235.565 64.9287 235.469 63.7725C235.372 62.6162 235.324 61.3275 235.324 59.9062C235.324 58.7741 235.36 57.6419 235.433 56.5098C235.505 55.3535 235.613 54.125 235.758 52.8242C235.421 52.8242 235.156 52.8363 234.963 52.8604C234.77 52.8604 234.614 52.8604 234.493 52.8604C233.722 52.8604 233.06 52.6917 232.506 52.3545C231.928 52.0173 231.639 51.4993 231.639 50.8008C231.639 50.3672 231.807 49.9818 232.145 49.6445C232.458 49.3073 232.867 49.0182 233.373 48.7773C233.879 48.5365 234.421 48.3438 234.999 48.1992C235.601 48.0547 236.167 47.9583 236.697 47.9102C236.697 47.2357 236.745 46.4889 236.842 45.6699C236.938 44.8509 237.107 44.0921 237.348 43.3936C237.613 42.6709 237.962 42.0687 238.396 41.5869C238.829 41.1051 239.383 40.8643 240.058 40.8643C240.443 40.8643 240.78 40.9847 241.069 41.2256C241.382 41.4424 241.635 41.7314 241.828 42.0928C242.021 42.43 242.165 42.8154 242.262 43.249C242.358 43.6826 242.406 44.1042 242.406 44.5137C242.406 44.9954 242.37 45.4893 242.298 45.9951C242.226 46.501 242.093 47.1273 241.9 47.874C242.31 47.8258 242.587 47.8018 242.731 47.8018C242.876 47.7777 243.008 47.7656 243.129 47.7656C243.538 47.7656 243.96 47.8018 244.394 47.874C244.851 47.9463 245.261 48.0667 245.622 48.2354C246.007 48.404 246.321 48.6328 246.562 48.9219C246.802 49.1868 246.923 49.512 246.923 49.8975C246.923 50.3311 246.742 50.7165 246.381 51.0537C246.044 51.391 245.61 51.68 245.08 51.9209C244.55 52.1618 243.984 52.3545 243.382 52.499C242.78 52.6195 242.214 52.7038 241.684 52.752C241.539 53.7396 241.431 54.6549 241.358 55.498C241.31 56.3171 241.25 57.1481 241.178 57.9912C241.13 58.4007 241.081 58.8223 241.033 59.2559C241.009 59.6654 240.997 60.0869 240.997 60.5205C240.997 60.8337 241.009 61.207 241.033 61.6406C241.057 62.0501 241.142 62.4476 241.286 62.833C241.431 63.2184 241.66 63.5557 241.973 63.8447C242.286 64.1097 242.719 64.2422 243.273 64.2422C243.611 64.2422 243.96 64.2181 244.321 64.1699C244.683 64.0977 245.044 64.0615 245.405 64.0615C246.032 64.0615 246.477 64.2783 246.742 64.7119C247.031 65.1455 247.176 65.6995 247.176 66.374C247.176 66.8799 247.019 67.3255 246.706 67.7109C246.417 68.0723 246.044 68.3613 245.586 68.5781C245.128 68.819 244.61 68.9997 244.032 69.1201C243.478 69.2406 242.948 69.3008 242.442 69.3008ZM258.485 48.127C258.485 48.8255 258.244 49.3434 257.763 49.6807C257.305 50.0179 256.787 50.3431 256.209 50.6562C255.631 50.9453 255.101 51.2946 254.619 51.7041C254.161 52.1136 253.933 52.7279 253.933 53.5469C253.933 53.9805 254.029 54.3538 254.222 54.667C254.438 54.9801 254.691 55.2692 254.98 55.5342C255.294 55.7751 255.631 56.028 255.992 56.293C256.354 56.5579 256.679 56.859 256.968 57.1963C257.281 57.5335 257.534 57.943 257.727 58.4248C257.943 58.9066 258.052 59.4967 258.052 60.1953C258.052 61.207 257.787 62.2067 257.257 63.1943C256.751 64.1579 256.089 65.0251 255.27 65.7959C254.475 66.5426 253.571 67.1449 252.56 67.6025C251.548 68.0602 250.548 68.2891 249.561 68.2891C249.151 68.2891 248.742 68.2529 248.332 68.1807C247.923 68.1325 247.549 68.0241 247.212 67.8555C246.899 67.6868 246.634 67.458 246.417 67.1689C246.2 66.8558 246.092 66.4583 246.092 65.9766C246.092 65.3021 246.224 64.7842 246.489 64.4229C246.754 64.0374 247.091 63.7363 247.501 63.5195C247.91 63.3027 248.344 63.1341 248.802 63.0137C249.284 62.8932 249.729 62.7487 250.139 62.5801C250.548 62.3874 250.885 62.1465 251.15 61.8574C251.415 61.5684 251.548 61.1589 251.548 60.6289C251.548 60.123 251.343 59.6051 250.934 59.0752C250.548 58.5212 250.115 57.943 249.633 57.3408C249.151 56.7145 248.705 56.0521 248.296 55.3535C247.91 54.6549 247.718 53.8841 247.718 53.041C247.718 52.0052 247.923 51.0537 248.332 50.1865C248.766 49.2952 249.332 48.5244 250.03 47.874C250.753 47.2236 251.572 46.7178 252.487 46.3564C253.403 45.971 254.366 45.7783 255.378 45.7783C255.763 45.7783 256.137 45.8145 256.498 45.8867C256.883 45.959 257.221 46.0915 257.51 46.2842C257.799 46.4528 258.028 46.6937 258.196 47.0068C258.389 47.2959 258.485 47.6693 258.485 48.127Z" fill="#4F4C4C"/>
<defs>
<clipPath id="clip0_24_2">
<rect width="74.6" height="61.6" fill="white" transform="translate(0 6)"/>
</clipPath>
</defs>
</svg>
